<svg width="56" height="56" viewBox="0 0 56 56" fill="none" xmlns="http://www.w3.org/2000/svg">
<circle cx="28" cy="28" r="26.5" fill="#F4ECFE" stroke="url(#paint0_linear)" stroke-width="3"/>
<path d="M12.2848 25.8526H12.3186C12.8593 24.8537 13.7887 24.4059 14.904 24.4059H15.4447V27.1788C15.0561 26.9549 14.6843 26.9032 14.2449 26.9032C12.6734 26.9032 12.2848 27.971 12.2848 29.3661V32.6557H9.44586V24.5092H12.2848V25.8526Z" fill="#7908FF"/>
<path d="M19.737 24.5092H16.8981V32.6384H19.737V24.5092Z" fill="#7908FF"/>
<path d="M24.688 25.4392H24.7218C25.2287 24.6298 26.1919 24.2509 27.1382 24.2509C29.5208 24.2509 31.16 26.2832 31.16 28.6083C31.16 30.9506 29.5208 32.914 27.1551 32.914C26.2426 32.914 25.2963 32.5868 24.688 31.8634V36.3241L21.8491 37.547V24.5092H24.688V25.4392ZM24.6035 28.591C24.6035 29.6244 25.2794 30.4167 26.4285 30.4167C27.5775 30.4167 28.2535 29.6244 28.2535 28.591C28.2535 27.5921 27.5775 26.7482 26.4285 26.7482C25.2794 26.7482 24.6035 27.5921 24.6035 28.591Z" fill="#7908FF"/>
<path d="M35.5198 24.5092H32.6809V32.6384H35.5198V24.5092Z" fill="#7908FF"/>
<path d="M46.5544 28.591C46.5544 31.3467 44.3069 32.914 41.7384 32.914C39.1868 32.914 36.9224 31.3639 36.9224 28.591C36.9224 25.8181 39.1699 24.2509 41.7384 24.2509C44.3069 24.2509 46.5544 25.8181 46.5544 28.591ZM39.9134 28.591C39.9134 29.6244 40.5893 30.4167 41.7384 30.4167C42.8875 30.4167 43.5634 29.6244 43.5634 28.591C43.5634 27.5921 42.8875 26.7482 41.7384 26.7482C40.5893 26.7482 39.9134 27.5921 39.9134 28.591Z" fill="#7908FF"/>
<path d="M19.7369 22.2531L16.9656 23.3898V20.703L19.7369 19.5663V22.2531Z" fill="#7908FF"/>
<path d="M35.4692 22.2531L32.6979 23.3898V20.703L35.4861 19.5663L35.4692 22.2531Z" fill="#7908FF"/>
<defs>
<linearGradient id="paint0_linear" x1="-6.40964" y1="12.1446" x2="56" y2="56" gradientUnits="userSpaceOnUse">
<stop stop-color="#FF08D7"/>
<stop offset="1" stop-color="#8B43E0"/>
</linearGradient>
</defs>
</svg>
