<svg width="19" height="30" viewBox="0 0 19 30" fill="none" xmlns="http://www.w3.org/2000/svg">
<path d="M15.9686 15.4688C15.1919 14.8562 14.0039 14.3378 12.4503 13.9136L11.2166 13.6309V8.30565C11.2623 8.35278 11.308 8.35278 11.308 8.35278C11.308 8.35278 11.3537 8.35277 11.3537 8.39989C12.4046 8.91828 12.9529 9.76655 12.9986 11.039H17.111C17.0196 8.82403 16.2428 7.17463 14.7349 5.99648C13.7297 5.24246 12.5874 4.72406 11.2166 4.44131V1.47237H7.42409V4.34707C5.64207 4.5827 4.27128 5.1482 3.22034 6.09072C1.89525 7.316 1.20985 8.91828 1.20985 10.8033C1.20985 12.8297 1.89524 14.3849 3.26602 15.3746C3.99711 15.9401 5.41361 16.4113 7.42409 16.9297V22.632C6.69301 22.3963 6.09899 22.0664 5.73345 21.5952C5.32221 21.0768 5.04805 20.3699 4.95667 19.5216H0.935699C0.935699 21.6894 1.71248 23.386 3.22034 24.6113C4.31697 25.5067 5.73344 26.0722 7.46977 26.3078V28.5227H11.2623V26.402C13.09 26.1664 14.5979 25.5538 15.6945 24.6113C17.111 23.3389 17.8421 21.7366 17.8421 19.8044C17.7507 17.8722 17.1566 16.4584 15.9686 15.4688ZM7.42409 12.7355C6.83008 12.547 6.41883 12.4056 6.14467 12.2642C5.45928 11.8872 5.13945 11.3217 5.13945 10.5677C5.13945 9.71943 5.45928 9.10678 6.14467 8.63552C6.51021 8.39989 6.92147 8.2114 7.42409 8.07002V12.7355ZM11.8563 22.5377C11.6735 22.632 11.4451 22.6791 11.2166 22.6791V17.778C11.902 18.0136 12.4046 18.2021 12.7701 18.4377C13.3641 18.8619 13.684 19.3803 13.684 20.0872C13.684 21.3124 13.0443 22.1136 11.8563 22.5377Z" stroke="white" stroke-width="1.41104" stroke-miterlimit="10" stroke-linecap="round" stroke-linejoin="round"/>
</svg>
