<svg width="17" height="17" viewBox="0 0 17 17" fill="none" xmlns="http://www.w3.org/2000/svg">
<path d="M8.35424 17C12.8214 17 16.4428 13.1944 16.4428 8.5C16.4428 3.80558 12.8214 0 8.35424 0C3.88705 0 0.265686 3.80558 0.265686 8.5C0.265686 13.1944 3.88705 17 8.35424 17Z" fill="#FEB402"/>
<path d="M6.9313 8.50012H9.82598C10.5372 8.50012 11.0996 9.10851 11.0996 9.83857C11.0996 10.586 10.5207 11.177 9.82598 11.177H5.93884" stroke="white" stroke-width="0.8" stroke-miterlimit="10" stroke-linecap="round" stroke-linejoin="round"/>
<path d="M5.93884 5.8056H9.31322C10.0245 5.8056 10.5869 6.41399 10.5869 7.14405C10.5869 7.89149 10.0079 8.48249 9.31322 8.48249H6.9313" stroke="white" stroke-width="0.8" stroke-miterlimit="10" stroke-linecap="round" stroke-linejoin="round"/>
<path d="M6.93112 4.77994V12.237" stroke="white" stroke-width="0.8" stroke-miterlimit="10" stroke-linecap="round" stroke-linejoin="round"/>
<path d="M8.51877 11.1765V12.2369" stroke="white" stroke-width="0.8" stroke-miterlimit="10" stroke-linecap="round" stroke-linejoin="round"/>
<path d="M8.51877 4.76263V5.80558" stroke="white" stroke-width="0.8" stroke-miterlimit="10" stroke-linecap="round" stroke-linejoin="round"/>
</svg>
