<svg width="16" height="16" viewBox="0 0 16 16" fill="none" xmlns="http://www.w3.org/2000/svg">
<path d="M13.7941 8.43552V8V7.55875L14.8713 6.59603C15.0698 6.41726 15.2001 6.17256 15.2392 5.90516C15.2782 5.63776 15.2234 5.36488 15.0845 5.13475L13.7604 2.84254C13.6621 2.66849 13.5206 2.52392 13.3502 2.42333C13.1799 2.32275 12.9866 2.2697 12.7899 2.26949C12.6679 2.26854 12.5466 2.28789 12.4308 2.3268L11.0675 2.7967C10.8321 2.63694 10.5866 2.49336 10.3326 2.36691L10.0464 0.922822C9.99513 0.658993 9.85461 0.421999 9.64948 0.253328C9.44435 0.0846577 9.18767 -0.00494324 8.92438 0.000210557H6.29876C6.03547 -0.00494324 5.77879 0.0846577 5.57366 0.253328C5.36853 0.421999 5.22801 0.658993 5.17671 0.922822L4.89058 2.36691C4.63471 2.49333 4.38732 2.6369 4.15002 2.7967L2.81477 2.30388C2.69769 2.27271 2.57643 2.2611 2.45572 2.26949C2.25895 2.2697 2.06569 2.32275 1.89534 2.42333C1.72499 2.52392 1.58352 2.66849 1.48514 2.84254L0.161109 5.13475C0.0301573 5.36453 -0.0185037 5.63368 0.0234599 5.89608C0.0654235 6.15848 0.195401 6.39782 0.39113 6.5731L1.45147 7.56448V8.44125L0.39113 9.40398C0.189872 9.58047 0.0563396 9.8241 0.0142306 10.0916C-0.0278784 10.3591 0.0241593 10.6332 0.161109 10.8653L1.48514 13.1575C1.58352 13.3315 1.72499 13.4761 1.89534 13.5767C2.06569 13.6772 2.25895 13.7303 2.45572 13.7305C2.57766 13.7315 2.69893 13.7121 2.81477 13.6732L4.17807 13.2033C4.41345 13.3631 4.65897 13.5066 4.91302 13.6331L5.19915 15.0772C5.25045 15.341 5.39097 15.578 5.5961 15.7467C5.80123 15.9153 6.05791 16.0049 6.3212 15.9998H8.96926C9.23255 16.0049 9.48923 15.9153 9.69436 15.7467C9.8995 15.578 10.04 15.341 10.0913 15.0772L10.3774 13.6331C10.6333 13.5067 10.8807 13.3631 11.118 13.2033L12.4757 13.6732C12.5915 13.7121 12.7128 13.7315 12.8347 13.7305C13.0315 13.7303 13.2248 13.6772 13.3951 13.5767C13.5655 13.4761 13.7069 13.3315 13.8053 13.1575L15.0845 10.8653C15.2154 10.6355 15.2641 10.3663 15.2221 10.1039C15.1802 9.84152 15.0502 9.60218 14.8545 9.4269L13.7941 8.43552ZM12.7899 12.5844L10.8655 11.9197C10.4151 12.3094 9.90023 12.6141 9.34515 12.8194L8.94682 14.8766H6.29876L5.90043 12.8423C5.34974 12.6312 4.83769 12.327 4.38565 11.9426L2.45572 12.5844L1.13169 10.2922L2.65769 8.91688C2.55395 8.32369 2.55395 7.71642 2.65769 7.12323L1.13169 5.7078L2.45572 3.41559L4.38004 4.08033C4.83051 3.6906 5.34535 3.38594 5.90043 3.18064L6.29876 1.12339H8.94682L9.34515 3.15772C9.89584 3.36885 10.4079 3.67298 10.8599 4.05741L12.7899 3.41559L14.1139 5.7078L12.5879 7.08312C12.6916 7.67631 12.6916 8.28358 12.5879 8.87677L14.1139 10.2922L12.7899 12.5844Z" fill="#A5A7AF"/>
<path d="M7.62289 11.4383C6.95712 11.4383 6.30631 11.2367 5.75274 10.8589C5.19918 10.4811 4.76773 9.94407 4.51295 9.3158C4.25817 8.68754 4.19151 7.99621 4.3214 7.32924C4.45128 6.66227 4.77188 6.04962 5.24264 5.56877C5.71341 5.08791 6.31321 4.76044 6.96618 4.62777C7.61915 4.49511 8.29598 4.5632 8.91106 4.82343C9.52615 5.08367 10.0519 5.52437 10.4218 6.0898C10.7916 6.65522 10.9891 7.31999 10.9891 8.00002C10.9936 8.45282 10.9096 8.90199 10.742 9.32122C10.5744 9.74046 10.3266 10.1213 10.0132 10.4415C9.69968 10.7617 9.3268 11.0148 8.91637 11.186C8.50593 11.3571 8.06619 11.4429 7.62289 11.4383ZM7.62289 5.70781C7.32629 5.70075 7.03138 5.75522 6.75599 5.86792C6.4806 5.98061 6.23045 6.1492 6.02067 6.36347C5.8109 6.57774 5.64585 6.83326 5.53552 7.11455C5.42519 7.39584 5.37186 7.69707 5.37877 8.00002C5.37186 8.30297 5.42519 8.6042 5.53552 8.88549C5.64585 9.16678 5.8109 9.4223 6.02067 9.63657C6.23045 9.85084 6.4806 10.0194 6.75599 10.1321C7.03138 10.2448 7.32629 10.2993 7.62289 10.2922C7.91948 10.2993 8.21439 10.2448 8.48978 10.1321C8.76517 10.0194 9.01532 9.85084 9.2251 9.63657C9.43488 9.4223 9.59992 9.16678 9.71025 8.88549C9.82058 8.6042 9.87391 8.30297 9.867 8.00002C9.87391 7.69707 9.82058 7.39584 9.71025 7.11455C9.59992 6.83326 9.43488 6.57774 9.2251 6.36347C9.01532 6.1492 8.76517 5.98061 8.48978 5.86792C8.21439 5.75522 7.91948 5.70075 7.62289 5.70781Z" fill="#A5A7AF"/>
</svg>
