<svg width="16" height="16" viewBox="0 0 16 16" fill="none" xmlns="http://www.w3.org/2000/svg">
<g clip-path="url(#clip0)">
<path d="M14.2136 5.20637C14.4889 5.21062 14.7472 5.06868 14.8907 4.83161C15.0406 4.58405 15.0406 4.27372 14.8907 4.02615C14.7408 3.77858 14.4658 3.63475 14.177 3.65283C13.9022 3.67002 13.6656 3.46124 13.6484 3.1865C13.6312 2.91175 13.8399 2.67508 14.1147 2.65789C14.7738 2.61663 15.4014 2.94487 15.7434 3.50983C16.0855 4.07479 16.0855 4.78298 15.7434 5.34794C15.4934 5.76088 15.0909 6.04735 14.635 6.15551C14.7365 6.4773 14.8036 6.81355 14.8319 7.16087C14.9178 8.14835 14.6942 9.13649 14.1945 9.98903C14.1794 10.0559 14.1494 10.1217 14.1029 10.1825L11.5537 13.5099C11.2978 13.8391 10.9042 14.0316 10.4873 14.0316C10.0703 14.0316 9.67675 13.8391 9.41904 13.5076L8.61167 12.4563H7.87264L7.06767 13.5099C6.81176 13.8391 6.41819 14.0316 6.00126 14.0316C5.60389 14.0316 5.22774 13.8567 4.97177 13.5553C4.94335 13.5311 4.90651 13.4991 4.86204 13.4595C4.74897 13.359 4.62359 13.2426 4.48894 13.1113C4.10534 12.7374 3.72203 12.3176 3.36335 11.8602C2.73658 11.0608 2.25351 10.2351 1.96851 9.39584L1.34986 9.39579C0.996836 9.4022 0.655842 9.26753 0.402458 9.02164C0.149074 8.77575 0.00423104 8.43896 0 8.07998V7.30146C0.00423718 6.94849 0.148497 6.61165 0.401073 6.36505C0.653649 6.11845 0.993849 5.9823 1.34081 5.98652H1.85839C2.15103 5.07283 2.64514 4.18595 3.28531 3.33861C3.65487 2.84946 4.05003 2.40446 4.44558 2.0111C4.65923 1.79864 4.83228 1.64069 4.94678 1.54302C5.20275 1.24159 5.57893 1.06667 5.97634 1.06667C6.39327 1.06667 6.78684 1.2592 7.04532 1.59169L7.84772 2.64196H9.61996C11.5651 2.64196 13.3159 3.6683 14.2136 5.20637ZM13.2574 9.61075C13.7068 8.90827 13.9112 8.07684 13.8387 7.24607L13.8384 7.24306C13.6741 5.21889 11.8058 3.63885 9.61996 3.63885H7.60126C7.44594 3.63885 7.29949 3.56644 7.20519 3.44301L6.25573 2.20023C6.18868 2.114 6.08557 2.06355 5.97634 2.06355C5.86711 2.06355 5.76399 2.114 5.69695 2.20023L5.62175 2.27786C5.60147 2.29469 5.55906 2.33128 5.49771 2.38653C5.3929 2.48089 5.27545 2.59175 5.14853 2.71797C4.7845 3.07997 4.42008 3.49035 4.08071 3.93955C3.42684 4.80501 2.94811 5.70572 2.71576 6.60912C2.6591 6.82941 2.46049 6.9834 2.23303 6.9834L1.33481 6.98337C1.24624 6.9823 1.16087 7.01647 1.09749 7.07835C1.03411 7.14023 0.997906 7.22475 0.996852 7.30739V8.07406C0.997893 8.16166 1.03383 8.24522 1.0967 8.30623C1.15957 8.36724 1.24418 8.40066 1.34081 8.39899H2.3377C2.5633 8.39899 2.76078 8.55051 2.81916 8.76843C3.03863 9.58755 3.50552 10.4258 4.14786 11.2451C4.47726 11.6652 4.83118 12.0528 5.18481 12.3975C5.30819 12.5178 5.42241 12.6238 5.52436 12.7145C5.58413 12.7676 5.62553 12.803 5.64545 12.8194L5.72187 12.898C5.78892 12.9843 5.89203 13.0347 6.00126 13.0347C6.11049 13.0347 6.21361 12.9843 6.27808 12.9014L7.23011 11.6553C7.32441 11.5318 7.47086 11.4594 7.62619 11.4594H8.85734C9.01223 11.4594 9.15832 11.5314 9.25266 11.6543L10.2079 12.898C10.2749 12.9843 10.378 13.0347 10.4873 13.0347C10.5965 13.0347 10.6996 12.9843 10.7645 12.9008L13.2071 9.71259C13.2196 9.67797 13.2362 9.64384 13.2574 9.61075ZM10.0038 4.28184C10.279 4.28184 10.5022 4.505 10.5022 4.78028C10.5022 5.05557 10.279 5.27873 10.0038 5.27873H7.60126C7.32598 5.27873 7.10282 5.05557 7.10282 4.78028C7.10282 4.505 7.32598 4.28184 7.60126 4.28184H10.0038ZM4.94954 7.00833C4.4624 7.00833 4.06232 6.6185 4.06232 6.13107C4.06232 5.64363 4.4624 5.25381 4.94954 5.25381C5.43669 5.25381 5.83677 5.64363 5.83677 6.13107C5.83677 6.6185 5.43669 7.00833 4.94954 7.00833Z" fill="#A5A7AF"/>
</g>
<defs>
<clipPath id="clip0">
<rect width="16" height="13.3333" fill="white" transform="translate(0 1.06667)"/>
</clipPath>
</defs>
</svg>
