<svg width="17" height="17" viewBox="0 0 17 17" fill="none" xmlns="http://www.w3.org/2000/svg">
<path d="M8.53149 17C12.9987 17 16.62 13.1944 16.62 8.5C16.62 3.80558 12.9987 0 8.53149 0C4.0643 0 0.442917 3.80558 0.442917 8.5C0.442917 13.1944 4.0643 17 8.53149 17Z" fill="#333333"/>
<path d="M8.53123 3.70255V9.23015" stroke="#FEFEFF" stroke-width="1.41294" stroke-miterlimit="10" stroke-linecap="round" stroke-linejoin="round"/>
<path d="M5.88509 8.0307L8.53165 9.23009" stroke="#FEFEFF" stroke-width="1.41294" stroke-miterlimit="10" stroke-linecap="round" stroke-linejoin="round"/>
<path d="M5.88509 8.03056L8.53165 6.83118" stroke="#FEFEFF" stroke-width="1.41294" stroke-miterlimit="10" stroke-linecap="round" stroke-linejoin="round"/>
<path d="M5.88518 8.03089L8.53174 3.70267" stroke="#FEFEFF" stroke-width="1.41294" stroke-miterlimit="10" stroke-linecap="round" stroke-linejoin="round"/>
<path d="M11.1778 8.0307L8.53123 9.23009" stroke="#FEFEFF" stroke-width="1.41294" stroke-miterlimit="10" stroke-linecap="round" stroke-linejoin="round"/>
<path d="M8.53165 10.117L5.88509 8.9176L8.53165 13.298V10.117Z" stroke="#FEFEFF" stroke-width="1.41294" stroke-miterlimit="10" stroke-linecap="round" stroke-linejoin="round"/>
<path d="M8.53165 10.117L5.88509 8.9176L8.53165 13.298" stroke="#FEFEFF" stroke-width="1.41294" stroke-miterlimit="10" stroke-linecap="round" stroke-linejoin="round"/>
<path d="M8.53113 10.1168L11.1777 8.91739L8.53113 13.2978" stroke="#FEFEFF" stroke-width="1.41294" stroke-miterlimit="10" stroke-linecap="round" stroke-linejoin="round"/>
<path d="M11.1778 8.03056L8.53123 6.83118" stroke="#FEFEFF" stroke-width="1.41294" stroke-miterlimit="10" stroke-linecap="round" stroke-linejoin="round"/>
<path d="M11.1778 8.03076L8.53123 3.70255" stroke="#FEFEFF" stroke-width="1.41294" stroke-miterlimit="10" stroke-linecap="round" stroke-linejoin="round"/>
</svg>
