<svg width="16" height="16" viewBox="0 0 16 16" fill="none" xmlns="http://www.w3.org/2000/svg">
<path d="M7.32318 3.01615H15.3835C15.7233 3.01615 15.9988 3.29163 15.9988 3.63144V6.70789C15.9988 7.04771 15.7233 7.32318 15.3835 7.32318H0.616523C0.0683586 7.32318 -0.206163 6.66043 0.181448 6.27282L6.27282 0.181448C6.66043 -0.206163 7.32318 0.0683586 7.32318 0.616523V3.01615ZM6.70789 4.24673C6.36808 4.24673 6.0926 3.97126 6.0926 3.63144V2.10196L2.10196 6.0926H14.7682V4.24673H6.70789ZM0.616523 12.9223C0.276708 12.9223 0.00123351 12.6468 0.00123351 12.307V9.23058C0.00123351 8.89077 0.276708 8.61529 0.616523 8.61529H15.3835C15.9316 8.61529 16.2062 9.27804 15.8186 9.66566L9.72718 15.757C9.33957 16.1446 8.67682 15.8701 8.67682 15.3219V12.9223H0.616523ZM1.23181 11.6917H9.29211C9.63192 11.6917 9.9074 11.9672 9.9074 12.307V13.8365L13.898 9.84587H1.23181V11.6917Z" fill="#A5A7AF"/>
</svg>
