<svg width="28" height="28" viewBox="0 0 28 28" fill="none" xmlns="http://www.w3.org/2000/svg">
<g filter="url(#filter0_d)">
<path d="M14 23.8C19.4124 23.8 23.8 19.4124 23.8 14C23.8 8.5876 19.4124 4.19999 14 4.19999C8.5876 4.19999 4.19999 8.5876 4.19999 14C4.19999 19.4124 8.5876 23.8 14 23.8ZM14 25.2C7.8144 25.2 2.79999 20.1856 2.79999 14C2.79999 7.8144 7.8144 2.79999 14 2.79999C20.1856 2.79999 25.2 7.8144 25.2 14C25.2 20.1856 20.1856 25.2 14 25.2ZM11.2 9.51544C11.372 9.36367 11.5604 9.2195 11.7653 9.08291C11.9702 8.94633 12.1915 8.82745 12.4293 8.72627C12.667 8.6251 12.925 8.54543 13.2032 8.48725C13.4815 8.42908 13.7825 8.39999 14.1062 8.39999C14.5463 8.39999 14.9472 8.46069 15.3089 8.5821C15.6706 8.70351 15.9805 8.87677 16.2385 9.10188C16.4965 9.327 16.6963 9.5989 16.8379 9.9176C16.9796 10.2363 17.0504 10.5929 17.0504 10.9875C17.0504 11.372 16.9947 11.7046 16.8835 11.9854C16.7722 12.2661 16.6318 12.5102 16.4623 12.7176C16.2928 12.925 16.1095 13.1046 15.9122 13.2564C15.7149 13.4081 15.5277 13.551 15.3507 13.6851C15.1736 13.8191 15.0206 13.9507 14.8916 14.0797C14.7626 14.2087 14.6854 14.3541 14.6601 14.516L14.4856 15.6238H13.2032L13.0742 14.387C13.0692 14.3617 13.0667 14.3402 13.0667 14.3225V14.258C13.0667 14.0354 13.1223 13.8419 13.2336 13.6775C13.3449 13.5131 13.484 13.3588 13.6509 13.2146C13.8179 13.0704 13.9975 12.9301 14.1897 12.7935C14.3819 12.6569 14.5615 12.5089 14.7284 12.3496C14.8954 12.1902 15.0345 12.0094 15.1458 11.807C15.2571 11.6047 15.3127 11.3669 15.3127 11.0938C15.3127 10.9116 15.2786 10.7485 15.2103 10.6043C15.142 10.4601 15.0471 10.3362 14.9257 10.2325C14.8043 10.1288 14.6589 10.0491 14.4894 9.99348C14.32 9.93784 14.1366 9.91002 13.9393 9.91002C13.6509 9.91002 13.4069 9.94163 13.207 10.0049C13.0072 10.0681 12.8377 10.1389 12.6986 10.2173C12.5595 10.2957 12.4419 10.3666 12.3458 10.4298C12.2497 10.493 12.1637 10.5246 12.0878 10.5246C11.9057 10.5246 11.7742 10.4488 11.6932 10.297L11.2 9.51544ZM12.6341 18.4618C12.6341 18.305 12.6632 18.1557 12.7214 18.0141C12.7796 17.8724 12.8605 17.751 12.9642 17.6499C13.0679 17.5487 13.1906 17.4677 13.3322 17.407C13.4739 17.3463 13.6256 17.316 13.7875 17.316C13.9443 17.316 14.0936 17.3463 14.2352 17.407C14.3769 17.4677 14.4983 17.5487 14.5994 17.6499C14.7006 17.751 14.7816 17.8724 14.8423 18.0141C14.903 18.1557 14.9333 18.305 14.9333 18.4618C14.9333 18.6237 14.903 18.7742 14.8423 18.9133C14.7816 19.0524 14.7006 19.1725 14.5994 19.2737C14.4983 19.3749 14.3769 19.4545 14.2352 19.5127C14.0936 19.5709 13.9443 19.6 13.7875 19.6C13.6256 19.6 13.4739 19.5709 13.3322 19.5127C13.1906 19.4545 13.0679 19.3749 12.9642 19.2737C12.8605 19.1725 12.7796 19.0524 12.7214 18.9133C12.6632 18.7742 12.6341 18.6237 12.6341 18.4618Z" fill="#A5A7AF"/>
</g>
<path d="M14 23.8C19.4124 23.8 23.8 19.4124 23.8 14C23.8 8.5876 19.4124 4.19999 14 4.19999C8.5876 4.19999 4.19999 8.5876 4.19999 14C4.19999 19.4124 8.5876 23.8 14 23.8ZM14 25.2C7.8144 25.2 2.79999 20.1856 2.79999 14C2.79999 7.8144 7.8144 2.79999 14 2.79999C20.1856 2.79999 25.2 7.8144 25.2 14C25.2 20.1856 20.1856 25.2 14 25.2ZM11.2 9.51544C11.372 9.36367 11.5604 9.2195 11.7653 9.08291C11.9702 8.94633 12.1915 8.82745 12.4293 8.72627C12.667 8.6251 12.925 8.54543 13.2032 8.48725C13.4815 8.42908 13.7825 8.39999 14.1062 8.39999C14.5463 8.39999 14.9472 8.46069 15.3089 8.5821C15.6706 8.70351 15.9805 8.87677 16.2385 9.10188C16.4965 9.327 16.6963 9.5989 16.8379 9.9176C16.9796 10.2363 17.0504 10.5929 17.0504 10.9875C17.0504 11.372 16.9947 11.7046 16.8835 11.9854C16.7722 12.2661 16.6318 12.5102 16.4623 12.7176C16.2928 12.925 16.1095 13.1046 15.9122 13.2564C15.7149 13.4081 15.5277 13.551 15.3507 13.6851C15.1736 13.8191 15.0206 13.9507 14.8916 14.0797C14.7626 14.2087 14.6854 14.3541 14.6601 14.516L14.4856 15.6238H13.2032L13.0742 14.387C13.0692 14.3617 13.0667 14.3402 13.0667 14.3225V14.258C13.0667 14.0354 13.1223 13.8419 13.2336 13.6775C13.3449 13.5131 13.484 13.3588 13.6509 13.2146C13.8179 13.0704 13.9975 12.9301 14.1897 12.7935C14.3819 12.6569 14.5615 12.5089 14.7284 12.3496C14.8954 12.1902 15.0345 12.0094 15.1458 11.807C15.2571 11.6047 15.3127 11.3669 15.3127 11.0938C15.3127 10.9116 15.2786 10.7485 15.2103 10.6043C15.142 10.4601 15.0471 10.3362 14.9257 10.2325C14.8043 10.1288 14.6589 10.0491 14.4894 9.99348C14.32 9.93784 14.1366 9.91002 13.9393 9.91002C13.6509 9.91002 13.4069 9.94163 13.207 10.0049C13.0072 10.0681 12.8377 10.1389 12.6986 10.2173C12.5595 10.2957 12.4419 10.3666 12.3458 10.4298C12.2497 10.493 12.1637 10.5246 12.0878 10.5246C11.9057 10.5246 11.7742 10.4488 11.6932 10.297L11.2 9.51544ZM12.6341 18.4618C12.6341 18.305 12.6632 18.1557 12.7214 18.0141C12.7796 17.8724 12.8605 17.751 12.9642 17.6499C13.0679 17.5487 13.1906 17.4677 13.3322 17.407C13.4739 17.3463 13.6256 17.316 13.7875 17.316C13.9443 17.316 14.0936 17.3463 14.2352 17.407C14.3769 17.4677 14.4983 17.5487 14.5994 17.6499C14.7006 17.751 14.7816 17.8724 14.8423 18.0141C14.903 18.1557 14.9333 18.305 14.9333 18.4618C14.9333 18.6237 14.903 18.7742 14.8423 18.9133C14.7816 19.0524 14.7006 19.1725 14.5994 19.2737C14.4983 19.3749 14.3769 19.4545 14.2352 19.5127C14.0936 19.5709 13.9443 19.6 13.7875 19.6C13.6256 19.6 13.4739 19.5709 13.3322 19.5127C13.1906 19.4545 13.0679 19.3749 12.9642 19.2737C12.8605 19.1725 12.7796 19.0524 12.7214 18.9133C12.6632 18.7742 12.6341 18.6237 12.6341 18.4618Z" fill="#A5A7AF"/>
<defs>
<filter id="filter0_d" x="-1.20001" y="-1.20001" width="30.4" height="30.4" filterUnits="userSpaceOnUse" color-interpolation-filters="sRGB">
<feFlood flood-opacity="0" result="BackgroundImageFix"/>
<feColorMatrix in="SourceAlpha" type="matrix" values="0 0 0 0 0 0 0 0 0 0 0 0 0 0 0 0 0 0 127 0"/>
<feOffset/>
<feGaussianBlur stdDeviation="2"/>
<feColorMatrix type="matrix" values="0 0 0 0 0.847059 0 0 0 0 0.85098 0 0 0 0 0.886275 0 0 0 0.5 0"/>
<feBlend mode="normal" in2="BackgroundImageFix" result="effect1_dropShadow"/>
<feBlend mode="normal" in="SourceGraphic" in2="effect1_dropShadow" result="shape"/>
</filter>
</defs>
</svg>
