<svg width="21" height="23" viewBox="0 0 21 23" fill="none" xmlns="http://www.w3.org/2000/svg">
<path d="M6.18109 3.64465C6.40956 2.74926 6.63802 1.85386 6.86648 0.95847C6.91218 0.769965 7.00355 0.722839 7.14063 0.722839C9.2425 0.722839 11.3444 0.722839 13.4462 0.722839C13.6747 0.722839 13.7204 0.769968 13.629 1.0056C12.9893 3.50328 12.3496 6.00096 11.7099 8.49864C11.7099 8.54576 11.7099 8.59289 11.6642 8.68714C12.3039 8.45151 12.8979 8.21588 13.5376 7.98025C13.4462 8.40439 13.3549 8.7814 13.2178 9.1584C13.035 9.86529 12.8522 10.5722 12.6695 11.2791C12.6238 11.4205 12.5781 11.5147 12.3953 11.5618C11.8927 11.7503 11.3901 11.9388 10.8875 12.1273C10.7504 12.1745 10.7047 12.2216 10.659 12.363C10.2934 13.7296 9.9736 15.0492 9.60806 16.4158C9.56236 16.6514 9.60806 16.6986 9.83652 16.6986C11.3444 16.6986 12.8522 16.6986 14.3144 16.6986" stroke="white" stroke-width="1.41104" stroke-miterlimit="10" stroke-linecap="round" stroke-linejoin="round"/>
<path d="M5.40421 6.70756C5.40421 6.61349 5.4498 6.51942 5.4498 6.47238" stroke="white" stroke-width="1.41104" stroke-miterlimit="10" stroke-linecap="round" stroke-linejoin="round"/>
<path d="M17.3765 16.7454C17.742 16.7454 19.1585 16.7454 19.524 16.7454C19.8438 16.7454 19.8439 16.7454 19.7982 17.0753C19.4326 18.4419 19.1128 19.7615 18.7472 21.1281C18.7015 21.2224 18.7015 21.3166 18.6101 21.3638C18.5188 21.4109 18.4274 21.4109 18.336 21.4109C12.8529 21.4109 7.36971 21.4109 1.88656 21.4109C1.79518 21.4109 1.7038 21.458 1.61242 21.3638C1.52103 21.2695 1.61242 21.1281 1.61242 21.0339C2.11504 19.1017 2.61764 17.2167 3.07457 15.2845C3.07457 15.2374 3.07457 15.2374 3.07457 15.1431C2.43487 15.3788 1.84087 15.6144 1.20117 15.85C1.29256 15.5201 1.33825 15.1903 1.42964 14.9075C1.61241 14.1064 1.84087 13.3052 2.02364 12.5041C2.06933 12.3627 2.11504 12.2684 2.29781 12.2213C2.80043 12.0328 3.25735 11.8443 3.71428 11.6558C3.89705 11.5615 4.03412 11.4673 4.07982 11.2788C4.35397 10.242 4.58244 9.25238 4.8566 8.21561" stroke="white" stroke-width="1.41104" stroke-miterlimit="10" stroke-linecap="round" stroke-linejoin="round"/>
</svg>
