<svg width="16" height="16" viewBox="0 0 16 16" fill="none" xmlns="http://www.w3.org/2000/svg">
<path d="M3.89822 15.3007C3.63889 15.3007 3.32769 15.197 3.12022 15.0414C2.70529 14.7302 2.49782 14.2115 2.60155 13.7447L3.22396 9.85469L0.423149 7.10575C0.0600817 6.74268 -0.0955187 6.22402 0.0600816 5.70535C0.215682 5.23855 0.630616 4.87548 1.14928 4.77174L5.03929 4.20121L6.80277 0.674268C7.01023 0.311201 7.47703 0 7.9957 0C8.51437 0 8.98117 0.311201 9.18864 0.726135L10.9521 4.25308L14.8421 4.82361C15.3608 4.87548 15.7757 5.23855 15.9313 5.75721C16.0869 6.22402 15.9832 6.79455 15.5683 7.15762L12.7674 9.85469L13.4417 13.7447C13.5454 14.2634 13.338 14.7302 12.923 15.0414C12.5081 15.3526 11.9376 15.4044 11.5226 15.1451L8.04757 13.3298L4.57249 15.1451C4.31316 15.2488 4.10569 15.3007 3.89822 15.3007ZM7.9957 1.34854L6.1285 5.18668C6.02476 5.39415 5.8173 5.54975 5.60983 5.54975L1.35675 6.17215L4.41689 9.12856C4.57249 9.28416 4.62436 9.49162 4.62436 9.75096L3.89822 13.9522L7.6845 11.9294C7.89197 11.8256 8.09943 11.8256 8.3069 11.9294L12.0932 13.9003L11.367 9.69909C11.3152 9.49162 11.4189 9.23229 11.5745 9.07669L14.6347 6.12028L10.3816 5.54975C10.1741 5.49788 9.96664 5.39415 9.86291 5.18668L7.9957 1.34854Z" fill="#A5A7AF"/>
</svg>
