<svg width="33" height="32" viewBox="0 0 33 32" fill="none" xmlns="http://www.w3.org/2000/svg">
<path d="M17.9838 6.29078V8.45857C18.9433 8.64707 19.8115 9.02409 20.5426 9.5896C21.6392 10.4379 22.2332 11.6631 22.2789 13.2654H19.2632C19.2175 12.37 18.8063 11.7103 18.0752 11.3804C18.0752 11.3333 18.0752 11.3333 18.0295 11.3333C17.9838 11.3333 17.9838 11.3333 17.9381 11.2861V15.1505L18.8063 15.339C19.9486 15.6217 20.771 15.9987 21.365 16.47C22.2332 17.1769 22.6901 18.2137 22.6901 19.5803C22.6901 20.9941 22.1875 22.1251 21.1366 23.0676C20.3598 23.7745 19.2632 24.1987 17.9381 24.3872V25.9423H15.1965V24.34C13.9171 24.1515 12.9119 23.7274 12.1351 23.1148C11.0385 22.2194 10.4901 20.9941 10.4901 19.4389H13.4145C13.5059 20.0516 13.6887 20.57 14.0085 20.947C14.2827 21.2768 14.6939 21.5596 15.2422 21.701V17.5539C13.78 17.224 12.7748 16.847 12.2265 16.4229C11.2212 15.716 10.7186 14.6321 10.7186 13.1241C10.7186 11.7574 11.2212 10.6264 12.1808 9.73097C12.9119 9.02408 13.9171 8.59994 15.2422 8.45857V6.38502H17.9838V6.29078ZM15.2422 14.3493V10.9563C14.8767 11.0505 14.5568 11.1919 14.3284 11.3333C13.8257 11.6631 13.5973 12.1344 13.5973 12.6999C13.5973 13.2654 13.8257 13.6896 14.3284 13.9252C14.4654 14.1137 14.7853 14.2551 15.2422 14.3493ZM17.9838 21.6067C18.1666 21.5596 18.3036 21.5596 18.4407 21.4654C19.3089 21.1355 19.7658 20.57 19.7658 19.7217C19.7658 19.2033 19.5373 18.8263 19.1261 18.5435C18.852 18.4022 18.4864 18.2137 18.0295 18.0723V21.6067H17.9838ZM17.9838 4.877H15.2422C14.4654 4.877 13.8714 5.48964 13.8714 6.29078V7.18617C12.8662 7.46893 11.998 7.94019 11.2669 8.55282C9.98753 9.73097 9.34782 11.239 9.34782 13.0298C9.34782 15.4804 10.4902 16.7999 11.4497 17.5068C11.6325 17.6481 11.8609 17.7895 12.1351 17.9309H10.5359C9.75908 17.9309 9.16507 18.5435 9.16507 19.3447C9.16507 21.324 9.89615 22.9734 11.3583 24.1515C12.0894 24.7171 12.9119 25.1412 13.9171 25.4239V25.8481C13.9171 26.6492 14.5111 27.2619 15.2879 27.2619H18.0295C18.8062 27.2619 19.4003 26.6492 19.4003 25.8481V25.4711C20.4512 25.1883 21.3651 24.7171 22.0961 24.1044C23.4212 22.8791 24.1066 21.3711 24.1066 19.5332C24.1066 17.7424 23.4669 16.3286 22.2789 15.339C21.959 15.1033 21.6392 14.8677 21.228 14.6792H22.2789C22.6444 14.6792 23.01 14.5378 23.2841 14.2551C23.5583 13.9723 23.6954 13.5953 23.6497 13.2183C23.604 11.1919 22.8272 9.58959 21.365 8.45857C20.771 7.98731 20.0857 7.65743 19.3546 7.37467V6.33789C19.3546 5.48963 18.7149 4.877 17.9838 4.877Z" fill="white"/>
<path d="M21.3657 1.15346C27.4428 3.227 31.7837 9.11776 31.7837 16.0453C31.7837 22.9728 27.3971 28.8636 21.3657 30.9371" stroke="white" stroke-width="1.44029" stroke-miterlimit="10" stroke-linecap="round" stroke-linejoin="round"/>
<path d="M11.8149 30.8912C5.78348 28.8177 1.39697 22.9269 1.39697 16.0465C1.39697 9.11901 5.78348 3.22825 11.8149 1.15471" stroke="white" stroke-width="1.44029" stroke-miterlimit="10" stroke-linecap="round" stroke-linejoin="round"/>
</svg>
