<svg width="17" height="17" viewBox="0 0 17 17" fill="none" xmlns="http://www.w3.org/2000/svg">
<path d="M8.61997 17C13.0872 17 16.7085 13.1944 16.7085 8.5C16.7085 3.80558 13.0872 0 8.61997 0C4.15278 0 0.531403 3.80558 0.531403 8.5C0.531403 13.1944 4.15278 17 8.61997 17Z" fill="#2776CA"/>
<path d="M9.1167 4.902V5.70158C9.46406 5.77111 9.77834 5.91018 10.043 6.11876C10.44 6.43165 10.655 6.88359 10.6716 7.47459H9.57985C9.56331 7.14433 9.41444 6.90097 9.14979 6.77929C9.14979 6.76191 9.14978 6.76191 9.13324 6.76191C9.1167 6.76191 9.1167 6.76191 9.10016 6.74453V8.16989L9.41444 8.23942C9.82797 8.34371 10.1257 8.48277 10.3407 8.65659C10.655 8.91733 10.8204 9.29974 10.8204 9.80383C10.8204 10.3253 10.6385 10.7425 10.258 11.0901C9.97683 11.3509 9.57985 11.5073 9.10016 11.5768V12.1505H8.10769V11.5595C7.64455 11.4899 7.28065 11.3335 6.99945 11.1075C6.60247 10.7772 6.40397 10.3253 6.40397 9.75169H7.4626C7.49568 9.97766 7.56184 10.1689 7.67763 10.3079C7.77688 10.4296 7.92575 10.5339 8.12424 10.586V9.05639C7.59493 8.93471 7.23102 8.79566 7.03253 8.63921C6.66862 8.37848 6.48667 7.97868 6.48667 7.42245C6.48667 6.91836 6.66863 6.50118 7.01599 6.17091C7.28065 5.91017 7.64455 5.75373 8.12424 5.70158V4.93676H9.1167V4.902ZM8.12424 7.87438V6.62285C7.99191 6.65762 7.87613 6.70976 7.79342 6.76191C7.61147 6.88359 7.52876 7.05741 7.52876 7.266C7.52876 7.47459 7.61147 7.63103 7.79342 7.71794C7.84304 7.78747 7.95883 7.83962 8.12424 7.87438ZM9.1167 10.5513C9.18287 10.5339 9.23249 10.5339 9.28211 10.4991C9.59639 10.3775 9.7618 10.1689 9.7618 9.85598C9.7618 9.66478 9.6791 9.52572 9.53023 9.42142C9.43098 9.36928 9.29865 9.29975 9.13324 9.2476V10.5513H9.1167ZM9.1167 4.38052H8.12424C7.84304 4.38052 7.62801 4.6065 7.62801 4.902V5.23226C7.26411 5.33656 6.94983 5.51038 6.68517 5.73635C6.22202 6.17091 5.99044 6.72715 5.99044 7.38768C5.99044 8.29156 6.40398 8.77827 6.75134 9.03901C6.8175 9.09116 6.90021 9.1433 6.99945 9.19545H6.42052C6.13932 9.19545 5.92429 9.42142 5.92429 9.71692C5.92429 10.447 6.18894 11.0554 6.71825 11.4899C6.98291 11.6985 7.28064 11.855 7.64455 11.9593V12.1157C7.64455 12.4112 7.85958 12.6372 8.14078 12.6372H9.13324C9.41444 12.6372 9.62947 12.4112 9.62947 12.1157V11.9766C10.0099 11.8723 10.3407 11.6985 10.6054 11.4725C11.0851 11.0206 11.3332 10.4644 11.3332 9.78645C11.3332 9.12592 11.1016 8.60445 10.6716 8.23942C10.5558 8.1525 10.44 8.06559 10.2911 7.99606H10.6716C10.8039 7.99606 10.9362 7.94392 11.0355 7.83962C11.1347 7.73533 11.1843 7.59627 11.1678 7.45721C11.1512 6.70976 10.87 6.11876 10.3407 5.70158C10.1257 5.52776 9.87759 5.40608 9.61293 5.30179V4.91937C9.61293 4.60649 9.38136 4.38052 9.1167 4.38052Z" fill="white"/>
<path d="M10.3412 3.00726C12.5411 3.77209 14.1125 5.94489 14.1125 8.50011C14.1125 11.0553 12.5246 13.2281 10.3412 13.993" stroke="white" stroke-width="1.44223" stroke-miterlimit="10" stroke-linecap="round" stroke-linejoin="round"/>
<path d="M6.88344 13.9759C4.70003 13.211 3.11209 11.0382 3.11209 8.50041C3.11209 5.9452 4.70003 3.77239 6.88344 3.00757" stroke="white" stroke-width="1.44223" stroke-miterlimit="10" stroke-linecap="round" stroke-linejoin="round"/>
</svg>
