<svg width="14" height="14" viewBox="0 0 14 14" fill="none" xmlns="http://www.w3.org/2000/svg">
<path d="M12.5688 6.56801V4.43468L2.17977 4.43468C1.79006 4.43597 1.41101 4.32841 1.08158 4.12839V11.7503C1.08353 12.3674 1.57388 12.8667 2.17808 12.8667H12.5688V10.7387H6.54321C6.40748 10.7387 6.27709 10.6847 6.17967 10.5882L4.61323 9.03617C4.40177 8.82666 4.40177 8.48004 4.61323 8.27053L6.17967 6.71853C6.27709 6.622 6.40748 6.56801 6.54321 6.56801H12.5688ZM13.0895 3.36801H11.5799C11.5606 3.33479 11.5421 3.301 11.5245 3.26668H13.1516C13.4797 3.26668 13.633 3.5703 13.611 3.85356C13.6123 3.8693 13.613 3.88524 13.613 3.90135V13.4C13.613 13.6946 13.3793 13.9333 13.0909 13.9333H2.17809C0.998452 13.9333 0.0411005 12.9586 0.0372925 11.752V2.25335C0.0372925 2.24682 0.0372925 2.24034 0.0375553 2.23393C0.0314095 1.8415 0.133076 1.44774 0.342554 1.09911C0.749569 0.421724 1.49676 0.0259457 2.25437 0.0700123H13.0909V1.11048C12.4896 1.11048 12.0021 1.59961 12.0021 2.20297C12.0021 2.49195 12.1167 2.76905 12.3207 2.97305C12.5247 3.17706 12.8012 3.2912 13.0892 3.29027L13.0895 3.36801ZM11.2173 2.2029C11.2173 1.81287 11.3294 1.44787 11.5245 1.13576L2.26073 1.13508C1.84763 1.11261 1.45544 1.3106 1.24181 1.64946C1.02817 1.98832 1.02817 2.41241 1.24181 2.75127C1.45544 3.09013 1.84763 3.28812 2.2909 3.26483H11.5225C11.3244 2.94623 11.2173 2.57985 11.2173 2.2029ZM13.1512 0.0666809C13.767 0.0666809 13.767 1.13335 13.1512 1.13335L11.5245 1.1332C11.8551 0.494421 12.4599 0.0666809 13.1512 0.0666809ZM5.72671 8.65335L6.75485 9.67202H12.5688V7.63468H6.75485L5.72671 8.65335Z" fill="#A5A7AF"/>
</svg>
