<svg width="23" height="22" viewBox="0 0 23 22" fill="none" xmlns="http://www.w3.org/2000/svg">
<path d="M22.7376 19.654C21.9933 19.0056 21.3417 18.2622 20.8003 17.4439C20.2093 16.3143 19.8551 15.0807 19.7584 13.8155V10.0891C19.7553 9.63651 19.714 9.1849 19.6349 8.7389C19.0274 8.62022 18.4436 8.40624 17.906 8.10526C18.1109 8.7501 18.215 9.42148 18.2148 10.0967V13.8231C18.3094 15.3665 18.7438 16.8717 19.4883 18.2359C20.0211 19.0611 20.6534 19.8209 21.3715 20.4989H1.60537C2.32347 19.8209 2.95573 19.0611 3.48859 18.2359C4.23309 16.8717 4.66748 15.3665 4.76208 13.8231V10.0891C4.75802 9.21615 4.93019 8.35095 5.26873 7.54308C5.60727 6.7352 6.10554 6.00053 6.735 5.38113C7.36446 4.76172 8.11275 4.26975 8.93702 3.93338C9.76129 3.59701 10.6454 3.42286 11.5386 3.42088C12.8459 3.4219 14.1238 3.79974 15.2124 4.50711C15.0924 4.07638 15.025 3.63327 15.0117 3.18704V2.71181C14.2059 2.32436 13.3401 2.06949 12.4493 1.95748V1.00703C12.4493 0.739948 12.3408 0.483807 12.1475 0.294952C11.9543 0.106097 11.6922 0 11.419 0C11.1457 0 10.8836 0.106097 10.6904 0.294952C10.4971 0.483807 10.3886 0.739948 10.3886 1.00703V1.9952C8.39401 2.27019 6.56856 3.24116 5.24926 4.72884C3.92997 6.21652 3.2059 8.12045 3.21074 10.0891V13.8155C3.11407 15.0807 2.75983 16.3143 2.16879 17.4439C1.63692 18.2603 0.995788 19.0036 0.262416 19.654C0.180088 19.7247 0.114106 19.8117 0.0688591 19.9093C0.0236124 20.0068 0.000138769 20.1127 0 20.2198V21.2457C0 21.4457 0.0813157 21.6376 0.226058 21.7791C0.370801 21.9205 0.567115 22 0.771812 22H22.2282C22.4329 22 22.6292 21.9205 22.7739 21.7791C22.9187 21.6376 23 21.4457 23 21.2457V20.2198C22.9999 20.1127 22.9764 20.0068 22.9311 19.9093C22.8859 19.8117 22.8199 19.7247 22.7376 19.654Z" fill="#A5A7AF"/>
</svg>
