<svg width="17" height="15" viewBox="0 0 17 15" fill="none" xmlns="http://www.w3.org/2000/svg">
<path fill-rule="evenodd" clip-rule="evenodd" d="M1.45463 7.5952H2.83661V13.7121C2.83661 13.972 3.04286 14.1827 3.29727 14.1827H6.06124C6.31566 14.1827 6.5219 13.972 6.5219 13.7121V9.7126C6.5219 9.06293 7.03751 8.53627 7.67356 8.53627C8.3096 8.53627 8.82521 9.06293 8.82521 9.7126V13.7121C8.82521 13.972 9.03145 14.1827 9.28587 14.1827H14.3531C14.6076 14.1827 14.8138 13.972 14.8138 13.7121V7.5952H16.1958C16.6211 7.5952 16.8193 7.05666 16.4991 6.77056L9.12856 0.183102C8.95487 0.027874 8.69554 0.027874 8.52186 0.183102L1.15128 6.77056C0.831165 7.05666 1.02927 7.5952 1.45463 7.5952ZM8.82505 1.16238L14.9696 6.65408H14.353C14.0986 6.65408 13.8923 6.86474 13.8923 7.12461V13.2415H9.74637V9.71254C9.74637 8.54313 8.81827 7.59514 7.67339 7.59514C6.52852 7.59514 5.60042 8.54313 5.60042 9.71254V13.2415H3.75777V7.12461C3.75777 6.86474 3.55153 6.65408 3.29711 6.65408H2.68049L8.82505 1.16238Z" fill="#A5A7AF"/>
</svg>
