<svg width="17" height="16" viewBox="0 0 17 16" fill="none" xmlns="http://www.w3.org/2000/svg">
<path d="M5.80146 9.97729L8.95566 4.99224L12.4453 7.25068L15.4417 2.47601" stroke="#A5A7AF" stroke-linecap="round" stroke-linejoin="round"/>
<path d="M4.87931 3.38827C6.01159 2.20136 7.57214 1.46954 9.2911 1.46954M15.5333 8.01288C15.5333 9.82091 14.8352 11.4567 13.7029 12.6375C12.5706 13.8182 11.0159 14.5562 9.2911 14.5562C7.56628 14.5562 6.00572 13.8244 4.87931 12.6375C3.7529 11.4506 3.04889 9.82091 3.04889 8.01288" stroke="#A5A7AF" stroke-miterlimit="10" stroke-linecap="round" stroke-linejoin="round"/>
<path d="M9.29109 1.46958H7.20839C3.76462 1.46958 0.972046 4.39685 0.972046 8.01289C0.972046 11.6289 3.76462 14.5562 7.21426 14.5562H9.29696" stroke="#A5A7AF" stroke-miterlimit="10" stroke-linecap="round" stroke-linejoin="round"/>
<path d="M12.9798 2.72889L15.6863 2.01139" stroke="#A5A7AF" stroke-miterlimit="10" stroke-linecap="round" stroke-linejoin="round"/>
<path d="M15.8321 2.02486L16.4978 4.65829" stroke="#A5A7AF" stroke-miterlimit="10" stroke-linecap="round" stroke-linejoin="round"/>
</svg>
