<svg width="17" height="16" viewBox="0 0 17 16" fill="none" xmlns="http://www.w3.org/2000/svg">
<g clip-path="url(#clip0)">
<path d="M4.68216 9.71487C4.56447 9.6005 4.49722 9.4461 4.50283 9.28027C4.54766 7.56475 7.26568 0.308099 15.5542 1.13155C16.3669 9.59478 9.26077 12.3682 7.57391 12.4082C7.41139 12.414 7.25447 12.3453 7.14239 12.231L4.68216 9.71487Z" stroke="#A5A7AF" stroke-linecap="round" stroke-linejoin="round"/>
<path d="M11.1887 7.26197C12.0924 7.26197 12.8251 6.51439 12.8251 5.5922C12.8251 4.67001 12.0924 3.92242 11.1887 3.92242C10.2849 3.92242 9.55225 4.67001 9.55225 5.5922C9.55225 6.51439 10.2849 7.26197 11.1887 7.26197Z" stroke="#A5A7AF" stroke-linecap="round" stroke-linejoin="round"/>
<path d="M6.32975 4.94553L3.85831 5.16854C3.76865 5.17426 3.69019 5.22573 3.63975 5.30007L2.0874 7.6732C1.99773 7.81045 2.03136 7.99915 2.16586 8.09636C2.20509 8.11924 2.24431 8.13639 2.28915 8.14211L4.57004 8.50237" stroke="#A5A7AF" stroke-linecap="round" stroke-linejoin="round"/>
<path d="M11.8225 10.55L11.6039 13.0776C11.5983 13.169 11.5479 13.2491 11.475 13.3006L9.14369 14.8846C9.00359 14.9761 8.82425 14.936 8.73459 14.7931C8.71217 14.7588 8.69536 14.7187 8.68975 14.6787L8.3479 12.3513" stroke="#A5A7AF" stroke-linecap="round" stroke-linejoin="round"/>
<path d="M3.44279 10.91L2.0871 12.2882" stroke="#A5A7AF" stroke-linecap="round" stroke-linejoin="round"/>
<path d="M5.97619 13.4945L4.6261 14.8727" stroke="#A5A7AF" stroke-linecap="round" stroke-linejoin="round"/>
<path d="M4.71029 12.2024L2.09314 14.8729" stroke="#A5A7AF" stroke-linecap="round" stroke-linejoin="round"/>
</g>
<defs>
<clipPath id="clip0">
<rect width="15.6643" height="16" fill="white" transform="translate(0.993042)"/>
</clipPath>
</defs>
</svg>
