<svg width="38" height="19" viewBox="0 0 38 19" fill="none" xmlns="http://www.w3.org/2000/svg">
<path d="M3.28476 6.85261H3.31855C3.8593 5.85368 4.7887 5.40588 5.90398 5.40588H6.44472V8.17877C6.05606 7.95487 5.6843 7.90321 5.24495 7.90321C3.67342 7.90321 3.28476 8.97103 3.28476 10.3661V13.6557H0.445862V5.50922H3.28476V6.85261Z" fill="#7908FF"/>
<path d="M10.737 5.50922H7.89807V13.6384H10.737V5.50922Z" fill="#7908FF"/>
<path d="M15.688 6.43924H15.7218C16.2287 5.62976 17.1919 5.25085 18.1382 5.25085C20.5208 5.25085 22.16 7.28316 22.16 9.60825C22.16 11.9506 20.5208 13.914 18.1551 13.914C17.2426 13.914 16.2963 13.5868 15.688 12.8634V17.3241L12.8491 18.547V5.5092H15.688V6.43924ZM15.6035 9.59103C15.6035 10.6244 16.2794 11.4167 17.4285 11.4167C18.5775 11.4167 19.2535 10.6244 19.2535 9.59103C19.2535 8.5921 18.5775 7.74818 17.4285 7.74818C16.2794 7.74818 15.6035 8.5921 15.6035 9.59103Z" fill="#7908FF"/>
<path d="M26.5198 5.50922H23.6809V13.6384H26.5198V5.50922Z" fill="#7908FF"/>
<path d="M37.5544 9.59103C37.5544 12.3467 35.3069 13.914 32.7384 13.914C30.1868 13.914 27.9224 12.3639 27.9224 9.59103C27.9224 6.81814 30.1699 5.25085 32.7384 5.25085C35.3069 5.25085 37.5544 6.81814 37.5544 9.59103ZM30.9134 9.59103C30.9134 10.6244 31.5893 11.4167 32.7384 11.4167C33.8875 11.4167 34.5634 10.6244 34.5634 9.59103C34.5634 8.5921 33.8875 7.74818 32.7384 7.74818C31.5893 7.74818 30.9134 8.5921 30.9134 9.59103Z" fill="#7908FF"/>
<path d="M10.7369 3.25306L7.96558 4.38977V1.703L10.7369 0.566284V3.25306Z" fill="#7908FF"/>
<path d="M26.4692 3.25306L23.6979 4.38977V1.703L26.4861 0.566284L26.4692 3.25306Z" fill="#7908FF"/>
</svg>
